STARTFONT 2.1
FONT -FontForge-Modern National Rail PIS Tall-Book-R-Normal--12-120-75-75-P-53-ISO10646-1
SIZE 12 75 75
FONTBOUNDINGBOX 7 12 0 -3
COMMENT "Generated by fontforge, http://fontforge.sourceforge.net"
COMMENT "Copyright Epalvosh 2023"
STARTPROPERTIES 39
FOUNDRY "FontForge"
FAMILY_NAME "Modern National Rail PIS Tall"
WEIGHT_NAME "Book"
SLANT "R"
SETWIDTH_NAME "Normal"
ADD_STYLE_NAME ""
PIXEL_SIZE 12
POINT_SIZE 120
RESOLUTION_X 75
RESOLUTION_Y 75
SPACING "P"
AVERAGE_WIDTH 53
CHARSET_REGISTRY "ISO10646"
CHARSET_ENCODING "1"
FONTNAME_REGISTRY ""
CHARSET_COLLECTIONS "ISO10646-1"
FONT_NAME "ModernNationalRailPISTall"
FACE_NAME "Modern National Rail PIS Tall Regular"
COPYRIGHT "Copyright Epalvosh 2023"
FONT_VERSION "1.0"
FONT_ASCENT 9
FONT_DESCENT 3
UNDERLINE_POSITION 1
UNDERLINE_THICKNESS 1
X_HEIGHT 5
CAP_HEIGHT 8
RAW_ASCENT 750
RAW_DESCENT 250
NORM_SPACE 5
RELATIVE_WEIGHT 40
RELATIVE_SETWIDTH 50
SUPERSCRIPT_X 0
SUPERSCRIPT_Y 6
SUPERSCRIPT_SIZE 6
SUBSCRIPT_X 0
SUBSCRIPT_Y -1
SUBSCRIPT_SIZE 6
AVG_LOWERCASE_WIDTH 55
AVG_UPPERCASE_WIDTH 58
ENDPROPERTIES
CHARS 118
STARTCHAR space
ENCODING 32
SWIDTH 416 0
DWIDTH 5 0
BBX 1 1 0 0
BITMAP
00
ENDCHAR
STARTCHAR exclam
ENCODING 33
SWIDTH 166 0
DWIDTH 2 0
BBX 1 9 0 0
BITMAP
80
80
80
80
80
80
80
00
80
ENDCHAR
STARTCHAR quotedbl
ENCODING 34
SWIDTH 500 0
DWIDTH 6 0
BBX 5 3 0 6
BITMAP
D8
D8
D8
ENDCHAR
STARTCHAR numbersign
ENCODING 35
SWIDTH 583 0
DWIDTH 7 0
BBX 6 9 0 0
BITMAP
24
24
FC
48
48
48
FC
90
90
ENDCHAR
STARTCHAR percent
ENCODING 37
SWIDTH 583 0
DWIDTH 7 0
BBX 6 9 0 0
BITMAP
44
A8
48
10
10
20
28
54
48
ENDCHAR
STARTCHAR ampersand
ENCODING 38
SWIDTH 583 0
DWIDTH 7 0
BBX 6 9 0 0
BITMAP
60
90
90
A0
40
A0
94
88
74
ENDCHAR
STARTCHAR quotesingle
ENCODING 39
SWIDTH 250 0
DWIDTH 3 0
BBX 2 4 0 5
BITMAP
C0
C0
40
80
ENDCHAR
STARTCHAR parenleft
ENCODING 40
SWIDTH 333 0
DWIDTH 4 0
BBX 3 9 0 0
BITMAP
20
40
80
80
80
80
80
40
20
ENDCHAR
STARTCHAR parenright
ENCODING 41
SWIDTH 333 0
DWIDTH 4 0
BBX 3 9 0 0
BITMAP
80
40
20
20
20
20
20
40
80
ENDCHAR
STARTCHAR asterisk
ENCODING 42
SWIDTH 500 0
DWIDTH 6 0
BBX 5 7 0 1
BITMAP
20
A8
70
F8
70
A8
20
ENDCHAR
STARTCHAR plus
ENCODING 43
SWIDTH 500 0
DWIDTH 6 0
BBX 5 5 0 1
BITMAP
20
20
F8
20
20
ENDCHAR
STARTCHAR comma
ENCODING 44
SWIDTH 250 0
DWIDTH 3 0
BBX 2 3 0 -2
BITMAP
40
40
80
ENDCHAR
STARTCHAR hyphen
ENCODING 45
SWIDTH 583 0
DWIDTH 7 0
BBX 6 1 0 4
BITMAP
FC
ENDCHAR
STARTCHAR period
ENCODING 46
SWIDTH 166 0
DWIDTH 2 0
BBX 1 1 0 0
BITMAP
80
ENDCHAR
STARTCHAR slash
ENCODING 47
SWIDTH 583 0
DWIDTH 7 0
BBX 6 6 0 1
BITMAP
04
08
10
20
40
80
ENDCHAR
STARTCHAR zero
ENCODING 48
SWIDTH 500 0
DWIDTH 6 0
BBX 5 9 0 0
BITMAP
70
88
88
88
88
88
88
88
70
ENDCHAR
STARTCHAR one
ENCODING 49
SWIDTH 333 0
DWIDTH 4 0
BBX 3 9 0 0
BITMAP
40
C0
40
40
40
40
40
40
E0
ENDCHAR
STARTCHAR two
ENCODING 50
SWIDTH 500 0
DWIDTH 6 0
BBX 5 9 0 0
BITMAP
70
88
08
08
10
20
40
80
F8
ENDCHAR
STARTCHAR three
ENCODING 51
SWIDTH 500 0
DWIDTH 6 0
BBX 5 9 0 0
BITMAP
70
88
08
08
30
08
08
88
70
ENDCHAR
STARTCHAR four
ENCODING 52
SWIDTH 500 0
DWIDTH 6 0
BBX 5 9 0 0
BITMAP
10
30
50
90
90
F8
10
10
10
ENDCHAR
STARTCHAR five
ENCODING 53
SWIDTH 500 0
DWIDTH 6 0
BBX 5 9 0 0
BITMAP
F8
80
80
F0
08
08
08
88
70
ENDCHAR
STARTCHAR six
ENCODING 54
SWIDTH 500 0
DWIDTH 6 0
BBX 5 9 0 0
BITMAP
70
88
80
80
F0
88
88
88
70
ENDCHAR
STARTCHAR seven
ENCODING 55
SWIDTH 500 0
DWIDTH 6 0
BBX 5 9 0 0
BITMAP
F8
08
08
10
10
20
20
40
40
ENDCHAR
STARTCHAR eight
ENCODING 56
SWIDTH 500 0
DWIDTH 6 0
BBX 5 9 0 0
BITMAP
70
88
88
88
70
88
88
88
70
ENDCHAR
STARTCHAR nine
ENCODING 57
SWIDTH 500 0
DWIDTH 6 0
BBX 5 9 0 0
BITMAP
70
88
88
88
78
08
08
88
70
ENDCHAR
STARTCHAR colon
ENCODING 58
SWIDTH 166 0
DWIDTH 2 0
BBX 1 5 0 1
BITMAP
80
00
00
00
80
ENDCHAR
STARTCHAR semicolon
ENCODING 59
SWIDTH 250 0
DWIDTH 3 0
BBX 2 7 0 -1
BITMAP
40
00
00
00
40
40
80
ENDCHAR
STARTCHAR less
ENCODING 60
SWIDTH 333 0
DWIDTH 4 0
BBX 3 5 0 1
BITMAP
20
40
80
40
20
ENDCHAR
STARTCHAR equal
ENCODING 61
SWIDTH 500 0
DWIDTH 6 0
BBX 5 3 0 2
BITMAP
F8
00
F8
ENDCHAR
STARTCHAR greater
ENCODING 62
SWIDTH 500 0
DWIDTH 6 0
BBX 3 5 2 1
BITMAP
80
40
20
40
80
ENDCHAR
STARTCHAR question
ENCODING 63
SWIDTH 500 0
DWIDTH 6 0
BBX 5 9 0 0
BITMAP
70
88
08
10
20
20
20
00
20
ENDCHAR
STARTCHAR at
ENCODING 64
SWIDTH 583 0
DWIDTH 7 0
BBX 6 9 0 0
BITMAP
78
84
B4
CC
BC
CC
BC
80
78
ENDCHAR
STARTCHAR A
ENCODING 65
SWIDTH 500 0
DWIDTH 6 0
BBX 5 9 0 0
BITMAP
70
88
88
88
F8
88
88
88
88
ENDCHAR
STARTCHAR B
ENCODING 66
SWIDTH 500 0
DWIDTH 6 0
BBX 5 9 0 0
BITMAP
F0
88
88
88
F0
88
88
88
F0
ENDCHAR
STARTCHAR C
ENCODING 67
SWIDTH 500 0
DWIDTH 6 0
BBX 5 9 0 0
BITMAP
70
88
80
80
80
80
80
88
70
ENDCHAR
STARTCHAR D
ENCODING 68
SWIDTH 500 0
DWIDTH 6 0
BBX 5 9 0 0
BITMAP
F0
88
88
88
88
88
88
88
F0
ENDCHAR
STARTCHAR E
ENCODING 69
SWIDTH 500 0
DWIDTH 6 0
BBX 5 9 0 0
BITMAP
F8
80
80
80
F0
80
80
80
F8
ENDCHAR
STARTCHAR F
ENCODING 70
SWIDTH 500 0
DWIDTH 6 0
BBX 5 9 0 0
BITMAP
F8
80
80
80
F0
80
80
80
80
ENDCHAR
STARTCHAR G
ENCODING 71
SWIDTH 500 0
DWIDTH 6 0
BBX 5 9 0 0
BITMAP
70
88
80
80
98
88
88
88
70
ENDCHAR
STARTCHAR H
ENCODING 72
SWIDTH 500 0
DWIDTH 6 0
BBX 5 9 0 0
BITMAP
88
88
88
88
F8
88
88
88
88
ENDCHAR
STARTCHAR I
ENCODING 73
SWIDTH 166 0
DWIDTH 2 0
BBX 1 9 0 0
BITMAP
80
80
80
80
80
80
80
80
80
ENDCHAR
STARTCHAR J
ENCODING 74
SWIDTH 500 0
DWIDTH 6 0
BBX 5 9 0 0
BITMAP
08
08
08
08
08
08
08
88
70
ENDCHAR
STARTCHAR K
ENCODING 75
SWIDTH 500 0
DWIDTH 6 0
BBX 5 9 0 0
BITMAP
80
88
90
A0
C0
C0
A0
90
88
ENDCHAR
STARTCHAR L
ENCODING 76
SWIDTH 500 0
DWIDTH 6 0
BBX 5 9 0 0
BITMAP
80
80
80
80
80
80
80
80
F8
ENDCHAR
STARTCHAR M
ENCODING 77
SWIDTH 500 0
DWIDTH 6 0
BBX 5 9 0 0
BITMAP
88
D8
A8
A8
88
88
88
88
88
ENDCHAR
STARTCHAR N
ENCODING 78
SWIDTH 500 0
DWIDTH 6 0
BBX 5 9 0 0
BITMAP
88
C8
C8
A8
A8
98
98
88
88
ENDCHAR
STARTCHAR O
ENCODING 79
SWIDTH 500 0
DWIDTH 6 0
BBX 5 9 0 0
BITMAP
70
88
88
88
88
88
88
88
70
ENDCHAR
STARTCHAR P
ENCODING 80
SWIDTH 500 0
DWIDTH 6 0
BBX 5 9 0 0
BITMAP
F0
88
88
88
F0
80
80
80
80
ENDCHAR
STARTCHAR Q
ENCODING 81
SWIDTH 500 0
DWIDTH 6 0
BBX 5 11 0 -2
BITMAP
70
88
88
88
88
88
88
88
70
10
08
ENDCHAR
STARTCHAR R
ENCODING 82
SWIDTH 500 0
DWIDTH 6 0
BBX 5 9 0 0
BITMAP
F0
88
88
88
F0
A0
90
88
88
ENDCHAR
STARTCHAR S
ENCODING 83
SWIDTH 500 0
DWIDTH 6 0
BBX 5 9 0 0
BITMAP
70
88
80
60
10
08
08
88
70
ENDCHAR
STARTCHAR T
ENCODING 84
SWIDTH 500 0
DWIDTH 6 0
BBX 5 9 0 0
BITMAP
F8
20
20
20
20
20
20
20
20
ENDCHAR
STARTCHAR U
ENCODING 85
SWIDTH 500 0
DWIDTH 6 0
BBX 5 9 0 0
BITMAP
88
88
88
88
88
88
88
88
70
ENDCHAR
STARTCHAR V
ENCODING 86
SWIDTH 500 0
DWIDTH 6 0
BBX 5 9 0 0
BITMAP
88
88
88
88
88
88
88
50
20
ENDCHAR
STARTCHAR W
ENCODING 87
SWIDTH 500 0
DWIDTH 6 0
BBX 5 9 0 0
BITMAP
88
88
88
88
88
A8
A8
D8
88
ENDCHAR
STARTCHAR X
ENCODING 88
SWIDTH 500 0
DWIDTH 6 0
BBX 5 9 0 0
BITMAP
88
88
50
50
20
50
50
88
88
ENDCHAR
STARTCHAR Y
ENCODING 89
SWIDTH 500 0
DWIDTH 6 0
BBX 5 9 0 0
BITMAP
88
88
50
50
20
20
20
20
20
ENDCHAR
STARTCHAR Z
ENCODING 90
SWIDTH 500 0
DWIDTH 6 0
BBX 5 9 0 0
BITMAP
F8
08
08
10
20
40
80
80
F8
ENDCHAR
STARTCHAR bracketleft
ENCODING 91
SWIDTH 250 0
DWIDTH 3 0
BBX 2 9 0 0
BITMAP
C0
80
80
80
80
80
80
80
C0
ENDCHAR
STARTCHAR backslash
ENCODING 92
SWIDTH 583 0
DWIDTH 7 0
BBX 6 6 0 1
BITMAP
80
40
20
10
08
04
ENDCHAR
STARTCHAR bracketright
ENCODING 93
SWIDTH 250 0
DWIDTH 3 0
BBX 2 9 0 0
BITMAP
C0
40
40
40
40
40
40
40
C0
ENDCHAR
STARTCHAR asciicircum
ENCODING 94
SWIDTH 500 0
DWIDTH 6 0
BBX 5 3 0 6
BITMAP
20
50
88
ENDCHAR
STARTCHAR underscore
ENCODING 95
SWIDTH 583 0
DWIDTH 7 0
BBX 6 1 0 0
BITMAP
FC
ENDCHAR
STARTCHAR a
ENCODING 97
SWIDTH 500 0
DWIDTH 6 0
BBX 5 6 0 0
BITMAP
70
08
78
88
88
78
ENDCHAR
STARTCHAR b
ENCODING 98
SWIDTH 500 0
DWIDTH 6 0
BBX 5 9 0 0
BITMAP
80
80
80
B0
C8
88
88
C8
B0
ENDCHAR
STARTCHAR c
ENCODING 99
SWIDTH 500 0
DWIDTH 6 0
BBX 5 6 0 0
BITMAP
78
80
80
80
80
78
ENDCHAR
STARTCHAR d
ENCODING 100
SWIDTH 500 0
DWIDTH 6 0
BBX 5 9 0 0
BITMAP
08
08
08
68
98
88
88
98
68
ENDCHAR
STARTCHAR e
ENCODING 101
SWIDTH 500 0
DWIDTH 6 0
BBX 5 6 0 0
BITMAP
70
88
F8
80
88
70
ENDCHAR
STARTCHAR f
ENCODING 102
SWIDTH 416 0
DWIDTH 5 0
BBX 4 9 0 0
BITMAP
30
40
40
F0
40
40
40
40
40
ENDCHAR
STARTCHAR g
ENCODING 103
SWIDTH 500 0
DWIDTH 6 0
BBX 5 9 0 -3
BITMAP
68
98
88
88
98
68
08
88
70
ENDCHAR
STARTCHAR h
ENCODING 104
SWIDTH 500 0
DWIDTH 6 0
BBX 5 9 0 0
BITMAP
80
80
80
B0
C8
88
88
88
88
ENDCHAR
STARTCHAR i
ENCODING 105
SWIDTH 166 0
DWIDTH 2 0
BBX 1 8 0 0
BITMAP
80
00
80
80
80
80
80
80
ENDCHAR
STARTCHAR j
ENCODING 106
SWIDTH 416 0
DWIDTH 5 0
BBX 4 11 0 -3
BITMAP
10
00
10
10
10
10
10
10
10
90
60
ENDCHAR
STARTCHAR k
ENCODING 107
SWIDTH 500 0
DWIDTH 6 0
BBX 5 9 0 0
BITMAP
80
80
80
90
A0
C0
A0
90
88
ENDCHAR
STARTCHAR l
ENCODING 108
SWIDTH 166 0
DWIDTH 2 0
BBX 1 9 0 0
BITMAP
80
80
80
80
80
80
80
80
80
ENDCHAR
STARTCHAR m
ENCODING 109
SWIDTH 500 0
DWIDTH 6 0
BBX 5 6 0 0
BITMAP
D0
A8
A8
A8
A8
A8
ENDCHAR
STARTCHAR n
ENCODING 110
SWIDTH 500 0
DWIDTH 6 0
BBX 5 6 0 0
BITMAP
B0
C8
88
88
88
88
ENDCHAR
STARTCHAR o
ENCODING 111
SWIDTH 500 0
DWIDTH 6 0
BBX 5 6 0 0
BITMAP
70
88
88
88
88
70
ENDCHAR
STARTCHAR p
ENCODING 112
SWIDTH 500 0
DWIDTH 6 0
BBX 5 9 0 -3
BITMAP
B0
C8
88
88
C8
B0
80
80
80
ENDCHAR
STARTCHAR q
ENCODING 113
SWIDTH 500 0
DWIDTH 6 0
BBX 5 9 0 -3
BITMAP
68
98
88
88
98
68
08
08
08
ENDCHAR
STARTCHAR r
ENCODING 114
SWIDTH 500 0
DWIDTH 6 0
BBX 5 6 0 0
BITMAP
B0
C8
80
80
80
80
ENDCHAR
STARTCHAR s
ENCODING 115
SWIDTH 500 0
DWIDTH 6 0
BBX 5 6 0 0
BITMAP
70
80
70
08
88
70
ENDCHAR
STARTCHAR t
ENCODING 116
SWIDTH 416 0
DWIDTH 5 0
BBX 4 8 0 0
BITMAP
40
40
F0
40
40
40
40
30
ENDCHAR
STARTCHAR u
ENCODING 117
SWIDTH 500 0
DWIDTH 6 0
BBX 5 6 0 0
BITMAP
88
88
88
88
98
68
ENDCHAR
STARTCHAR v
ENCODING 118
SWIDTH 500 0
DWIDTH 6 0
BBX 5 6 0 0
BITMAP
88
88
50
50
20
20
ENDCHAR
STARTCHAR w
ENCODING 119
SWIDTH 500 0
DWIDTH 6 0
BBX 5 6 0 0
BITMAP
A8
A8
A8
A8
A8
50
ENDCHAR
STARTCHAR x
ENCODING 120
SWIDTH 500 0
DWIDTH 6 0
BBX 5 6 0 0
BITMAP
88
50
20
20
50
88
ENDCHAR
STARTCHAR y
ENCODING 121
SWIDTH 500 0
DWIDTH 6 0
BBX 5 9 0 -3
BITMAP
88
88
88
88
98
68
08
88
70
ENDCHAR
STARTCHAR z
ENCODING 122
SWIDTH 500 0
DWIDTH 6 0
BBX 5 6 0 0
BITMAP
F8
08
10
20
40
F8
ENDCHAR
STARTCHAR braceleft
ENCODING 123
SWIDTH 333 0
DWIDTH 4 0
BBX 3 9 0 0
BITMAP
20
40
40
40
80
40
40
40
20
ENDCHAR
STARTCHAR bar
ENCODING 124
SWIDTH 166 0
DWIDTH 2 0
BBX 1 9 0 0
BITMAP
80
80
80
80
80
80
80
80
80
ENDCHAR
STARTCHAR braceright
ENCODING 125
SWIDTH 333 0
DWIDTH 4 0
BBX 3 9 0 0
BITMAP
80
40
40
40
20
40
40
40
80
ENDCHAR
STARTCHAR asciitilde
ENCODING 126
SWIDTH 583 0
DWIDTH 7 0
BBX 6 2 0 4
BITMAP
64
98
ENDCHAR
STARTCHAR exclamdown
ENCODING 161
SWIDTH 166 0
DWIDTH 2 0
BBX 1 9 0 -3
BITMAP
80
00
80
80
80
80
80
80
80
ENDCHAR
STARTCHAR cent
ENCODING 162
SWIDTH 83 0
DWIDTH 1 0
BBX 1 1 0 0
BITMAP
00
ENDCHAR
STARTCHAR sterling
ENCODING 163
SWIDTH 500 0
DWIDTH 6 0
BBX 5 9 0 0
BITMAP
30
48
40
40
F0
40
40
40
F8
ENDCHAR
STARTCHAR section
ENCODING 167
SWIDTH 500 0
DWIDTH 6 0
BBX 5 9 0 0
BITMAP
70
88
80
60
50
30
08
88
70
ENDCHAR
STARTCHAR copyright
ENCODING 169
SWIDTH 500 0
DWIDTH 6 0
BBX 5 8 0 1
BITMAP
70
88
B8
C8
C8
B8
88
70
ENDCHAR
STARTCHAR registered
ENCODING 174
SWIDTH 500 0
DWIDTH 6 0
BBX 5 8 0 1
BITMAP
70
88
E8
D8
E8
D8
88
70
ENDCHAR
STARTCHAR degree
ENCODING 176
SWIDTH 333 0
DWIDTH 4 0
BBX 3 3 0 6
BITMAP
40
A0
40
ENDCHAR
STARTCHAR plusminus
ENCODING 177
SWIDTH 500 0
DWIDTH 6 0
BBX 5 7 0 0
BITMAP
20
20
F8
20
20
00
F8
ENDCHAR
STARTCHAR uni00B2
ENCODING 178
SWIDTH 333 0
DWIDTH 4 0
BBX 3 5 0 4
BITMAP
40
A0
40
80
E0
ENDCHAR
STARTCHAR uni00B3
ENCODING 179
SWIDTH 333 0
DWIDTH 4 0
BBX 3 5 0 4
BITMAP
C0
20
40
20
C0
ENDCHAR
STARTCHAR paragraph
ENCODING 182
SWIDTH 500 0
DWIDTH 6 0
BBX 5 9 0 0
BITMAP
78
E8
E8
E8
68
28
28
28
28
ENDCHAR
STARTCHAR uni00B9
ENCODING 185
SWIDTH 250 0
DWIDTH 3 0
BBX 2 5 0 4
BITMAP
40
C0
40
40
40
ENDCHAR
STARTCHAR questiondown
ENCODING 191
SWIDTH 500 0
DWIDTH 6 0
BBX 5 9 0 -3
BITMAP
20
00
20
20
20
40
80
88
70
ENDCHAR
STARTCHAR multiply
ENCODING 215
SWIDTH 500 0
DWIDTH 6 0
BBX 5 5 0 1
BITMAP
88
50
20
50
88
ENDCHAR
STARTCHAR divide
ENCODING 247
SWIDTH 500 0
DWIDTH 6 0
BBX 5 5 0 1
BITMAP
20
00
F8
00
20
ENDCHAR
STARTCHAR uni1E9E
ENCODING 7838
SWIDTH 500 0
DWIDTH 6 0
BBX 5 9 0 0
BITMAP
70
88
88
90
A0
90
88
88
B0
ENDCHAR
STARTCHAR quoteleft
ENCODING 8216
SWIDTH 250 0
DWIDTH 3 0
BBX 2 4 0 5
BITMAP
40
80
C0
C0
ENDCHAR
STARTCHAR quoteright
ENCODING 8217
SWIDTH 250 0
DWIDTH 3 0
BBX 2 4 0 5
BITMAP
C0
C0
40
80
ENDCHAR
STARTCHAR quotedblleft
ENCODING 8220
SWIDTH 500 0
DWIDTH 6 0
BBX 5 4 0 5
BITMAP
48
90
D8
D8
ENDCHAR
STARTCHAR quotedblright
ENCODING 8221
SWIDTH 500 0
DWIDTH 6 0
BBX 5 4 0 5
BITMAP
D8
D8
48
90
ENDCHAR
STARTCHAR dagger
ENCODING 8224
SWIDTH 333 0
DWIDTH 4 0
BBX 3 9 0 0
BITMAP
40
40
E0
40
40
40
40
40
40
ENDCHAR
STARTCHAR bullet
ENCODING 8226
SWIDTH 166 0
DWIDTH 2 0
BBX 1 1 0 4
BITMAP
80
ENDCHAR
STARTCHAR Euro
ENCODING 8364
SWIDTH 500 0
DWIDTH 6 0
BBX 5 9 0 0
BITMAP
30
48
40
F0
40
F0
40
48
30
ENDCHAR
STARTCHAR trademark
ENCODING 8482
SWIDTH 583 0
DWIDTH 7 0
BBX 6 4 0 5
BITMAP
F4
5C
54
54
ENDCHAR
STARTCHAR .notdef
ENCODING -1
SWIDTH 660 0
DWIDTH 8 0
BBX 7 9 0 0
BITMAP
82
00
00
00
10
00
00
00
82
ENDCHAR
ENDFONT
